#define closed_width 13
#define closed_height 13
static unsigned char closed_bits[] = {
   0x18, 0x00, 0x28, 0x00, 0x48, 0x00, 0x88, 0x00, 0x08, 0x01, 0x08, 0x02,
   0x08, 0x01, 0x88, 0x00, 0x48, 0x00, 0x28, 0x00, 0x18, 0x00, 0x00, 0x00,
   0x00, 0x00};
