#define closed_width 16
#define closed_height 16
static unsigned char closed_bits[] = {
   0x00, 0x00, 0x00, 0x00, 0xc0, 0x00, 0x40, 0x01, 0x00, 0x02, 0x40, 0x04,
   0x40, 0x08, 0x00, 0x10, 0x40, 0x08, 0x40, 0x04, 0x00, 0x02, 0x40, 0x01,
   0xc0, 0x00, 0x00, 0x00, 0x00, 0x00, 0x00, 0x00};
