#define history_width 19
#define history_height 19
static char history_bits[] = {
   0x00, 0x00, 0x00, 0x00, 0x00, 0x00, 0x00, 0x00, 0x00, 0x00, 0x00, 0x00,
   0x90, 0x0f, 0x00, 0xf0, 0x3f, 0x00, 0xf0, 0x30, 0x00, 0xf0, 0x60, 0x00,
   0xf0, 0x61, 0x00, 0x00, 0x60, 0x00, 0x00, 0x60, 0x00, 0x20, 0x60, 0x00,
   0x60, 0x30, 0x00, 0xc0, 0x3f, 0x00, 0x80, 0x0f, 0x00, 0x00, 0x00, 0x00,
   0x00, 0x00, 0x00, 0x00, 0x00, 0x00, 0x00, 0x00, 0x00};
