#define opened_width 13
#define opened_height 13
static unsigned char opened_bits[] = {
   0x00, 0x00, 0x00, 0x00, 0x00, 0x00, 0xff, 0x07, 0x01, 0x04, 0x02, 0x02,
   0x04, 0x01, 0x88, 0x00, 0x50, 0x00, 0x20, 0x00, 0x00, 0x00, 0x00, 0x00,
   0x00, 0x00};
