#define opened_width 16
#define opened_height 16
static unsigned char opened_bits[] = {
   0x00, 0x00, 0x00, 0x00, 0x00, 0x00, 0x00, 0x00, 0x00, 0x00, 0x00, 0x00,
   0xd8, 0x36, 0x08, 0x20, 0x10, 0x10, 0x20, 0x08, 0x40, 0x04, 0x80, 0x02,
   0x00, 0x01, 0x00, 0x00, 0x00, 0x00, 0x00, 0x00};
