#define random_width 19
#define random_height 19
static char random_bits[] = {
   0x00, 0x00, 0x00, 0x00, 0x00, 0x00, 0xfc, 0xff, 0x01, 0x04, 0x00, 0x01,
   0xf4, 0x78, 0x01, 0x74, 0x70, 0x01, 0xf4, 0x78, 0x01, 0xd4, 0x5d, 0x01,
   0x84, 0x08, 0x01, 0x04, 0x00, 0x01, 0x84, 0x08, 0x01, 0xd4, 0x5d, 0x01,
   0xf4, 0x78, 0x01, 0x74, 0x70, 0x01, 0xf4, 0x78, 0x01, 0x04, 0x00, 0x01,
   0xfc, 0xff, 0x01, 0x00, 0x00, 0x00, 0x00, 0x00, 0x00};
